<mxfile host="Electron" modified="2024-03-29T04:09:28.408Z" agent="Mozilla/5.0 (Windows NT 10.0; Win64; x64) AppleWebKit/537.36 (KHTML, like Gecko) draw.io/24.1.0 Chrome/120.0.6099.109 Electron/28.1.0 Safari/537.36" etag="sVt2SNipWahqTzGE-2zX" version="24.1.0" type="device">
  <diagram name="Página-1" id="X4RsL4Onbh43Fyx9GaWB">
    <mxGraphModel dx="1420" dy="830" grid="1" gridSize="10" guides="1" tooltips="1" connect="1" arrows="1" fold="1" page="1" pageScale="1" pageWidth="827" pageHeight="1169" background="#CCE5FF" math="0" shadow="0">
      <root>
        <mxCell id="0" />
        <mxCell id="1" parent="0" />
        <mxCell id="8_OqGGnUDp98BqQ4bWpR-1" value="&lt;p style=&quot;line-height: 87%;&quot;&gt;&lt;b style=&quot;font-size: 16px;&quot;&gt;&lt;font style=&quot;font-size: 16px;&quot; color=&quot;#000000&quot; face=&quot;Comic Sans MS&quot;&gt;10&lt;br&gt;&lt;br&gt;Hacer un programa para ingresar cinco números y listar el máximo y el mínimo de ellos.&lt;/font&gt;&lt;/b&gt;&lt;/p&gt;" style="text;whiteSpace=wrap;html=1;fontFamily=Architects Daughter;fontSource=https%3A%2F%2Ffonts.googleapis.com%2Fcss%3Ffamily%3DArchitects%2BDaughter;opacity=90;" vertex="1" parent="1">
          <mxGeometry x="130" y="10" width="580" height="80" as="geometry" />
        </mxCell>
        <mxCell id="8_OqGGnUDp98BqQ4bWpR-152" value="" style="group" vertex="1" connectable="0" parent="1">
          <mxGeometry x="233.5" y="122" width="290" height="1618" as="geometry" />
        </mxCell>
        <mxCell id="8_OqGGnUDp98BqQ4bWpR-84" value="" style="line;strokeWidth=2;direction=south;html=1;hachureGap=4;fontFamily=Architects Daughter;fontSource=https://fonts.googleapis.com/css?family=Architects+Daughter;strokeColor=#000000;container=0;aspect=fixed;" vertex="1" parent="8_OqGGnUDp98BqQ4bWpR-152">
          <mxGeometry x="238.5" y="632" width="10" height="86" as="geometry" />
        </mxCell>
        <mxCell id="8_OqGGnUDp98BqQ4bWpR-85" value="" style="line;strokeWidth=2;direction=south;html=1;hachureGap=4;fontFamily=Architects Daughter;fontSource=https://fonts.googleapis.com/css?family=Architects+Daughter;strokeColor=#000000;container=0;aspect=fixed;" vertex="1" parent="8_OqGGnUDp98BqQ4bWpR-152">
          <mxGeometry x="42.75" y="633" width="10" height="45" as="geometry" />
        </mxCell>
        <mxCell id="8_OqGGnUDp98BqQ4bWpR-89" value="" style="line;strokeWidth=2;direction=south;html=1;hachureGap=4;fontFamily=Architects Daughter;fontSource=https://fonts.googleapis.com/css?family=Architects+Daughter;strokeColor=#000000;container=0;aspect=fixed;" vertex="1" parent="8_OqGGnUDp98BqQ4bWpR-152">
          <mxGeometry x="235.5" y="474" width="10" height="84" as="geometry" />
        </mxCell>
        <mxCell id="8_OqGGnUDp98BqQ4bWpR-90" value="" style="line;strokeWidth=2;direction=south;html=1;hachureGap=4;fontFamily=Architects Daughter;fontSource=https://fonts.googleapis.com/css?family=Architects+Daughter;strokeColor=#000000;container=0;aspect=fixed;" vertex="1" parent="8_OqGGnUDp98BqQ4bWpR-152">
          <mxGeometry x="234.5" y="333" width="10" height="75" as="geometry" />
        </mxCell>
        <mxCell id="8_OqGGnUDp98BqQ4bWpR-91" value="" style="line;strokeWidth=2;direction=south;html=1;hachureGap=4;fontFamily=Architects Daughter;fontSource=https://fonts.googleapis.com/css?family=Architects+Daughter;strokeColor=#000000;container=0;aspect=fixed;" vertex="1" parent="8_OqGGnUDp98BqQ4bWpR-152">
          <mxGeometry x="230.5" y="173" width="10" height="50" as="geometry" />
        </mxCell>
        <mxCell id="8_OqGGnUDp98BqQ4bWpR-92" value="" style="line;strokeWidth=2;direction=south;html=1;hachureGap=4;fontFamily=Architects Daughter;fontSource=https://fonts.googleapis.com/css?family=Architects+Daughter;strokeColor=#000000;container=0;aspect=fixed;" vertex="1" parent="8_OqGGnUDp98BqQ4bWpR-152">
          <mxGeometry x="47.5" y="173" width="10" height="50" as="geometry" />
        </mxCell>
        <mxCell id="8_OqGGnUDp98BqQ4bWpR-93" value="" style="line;strokeWidth=2;direction=south;html=1;hachureGap=4;fontFamily=Architects Daughter;fontSource=https://fonts.googleapis.com/css?family=Architects+Daughter;strokeColor=#000000;container=0;aspect=fixed;" vertex="1" parent="8_OqGGnUDp98BqQ4bWpR-152">
          <mxGeometry x="44.5" y="1188" width="10" height="30" as="geometry" />
        </mxCell>
        <mxCell id="8_OqGGnUDp98BqQ4bWpR-94" value="" style="line;strokeWidth=2;direction=south;html=1;hachureGap=4;fontFamily=Architects Daughter;fontSource=https://fonts.googleapis.com/css?family=Architects+Daughter;strokeColor=#000000;container=0;aspect=fixed;" vertex="1" parent="8_OqGGnUDp98BqQ4bWpR-152">
          <mxGeometry x="236.5" y="921" width="10" height="97" as="geometry" />
        </mxCell>
        <mxCell id="8_OqGGnUDp98BqQ4bWpR-95" value="" style="line;strokeWidth=2;direction=south;html=1;hachureGap=4;fontFamily=Architects Daughter;fontSource=https://fonts.googleapis.com/css?family=Architects+Daughter;strokeColor=#000000;container=0;aspect=fixed;" vertex="1" parent="8_OqGGnUDp98BqQ4bWpR-152">
          <mxGeometry x="236.5" y="858" width="10" height="10" as="geometry" />
        </mxCell>
        <mxCell id="8_OqGGnUDp98BqQ4bWpR-96" value="" style="line;strokeWidth=2;direction=south;html=1;hachureGap=4;fontFamily=Architects Daughter;fontSource=https://fonts.googleapis.com/css?family=Architects+Daughter;strokeColor=#000000;container=0;aspect=fixed;" vertex="1" parent="8_OqGGnUDp98BqQ4bWpR-152">
          <mxGeometry x="44.75" y="858" width="10" height="10" as="geometry" />
        </mxCell>
        <mxCell id="8_OqGGnUDp98BqQ4bWpR-98" value="" style="line;strokeWidth=2;direction=south;html=1;hachureGap=4;fontFamily=Architects Daughter;fontSource=https://fonts.googleapis.com/css?family=Architects+Daughter;strokeColor=#000000;container=0;aspect=fixed;" vertex="1" parent="8_OqGGnUDp98BqQ4bWpR-152">
          <mxGeometry x="44.25" y="538" width="10" height="20" as="geometry" />
        </mxCell>
        <mxCell id="8_OqGGnUDp98BqQ4bWpR-99" value="" style="line;strokeWidth=2;direction=south;html=1;hachureGap=4;fontFamily=Architects Daughter;fontSource=https://fonts.googleapis.com/css?family=Architects+Daughter;strokeColor=#000000;container=0;aspect=fixed;" vertex="1" parent="8_OqGGnUDp98BqQ4bWpR-152">
          <mxGeometry x="41.75" y="474" width="10" height="34" as="geometry" />
        </mxCell>
        <mxCell id="8_OqGGnUDp98BqQ4bWpR-102" value="" style="line;strokeWidth=2;html=1;perimeter=backbonePerimeter;points=[];outlineConnect=0;hachureGap=4;fontFamily=Architects Daughter;fontSource=https://fonts.googleapis.com/css?family=Architects+Daughter;strokeColor=#000000;container=0;aspect=fixed;" vertex="1" parent="8_OqGGnUDp98BqQ4bWpR-152">
          <mxGeometry x="46.5" y="713" width="197" height="10" as="geometry" />
        </mxCell>
        <mxCell id="8_OqGGnUDp98BqQ4bWpR-104" value="" style="line;strokeWidth=2;html=1;perimeter=backbonePerimeter;points=[];outlineConnect=0;hachureGap=4;fontFamily=Architects Daughter;fontSource=https://fonts.googleapis.com/css?family=Architects+Daughter;strokeColor=#000000;container=0;aspect=fixed;" vertex="1" parent="8_OqGGnUDp98BqQ4bWpR-152">
          <mxGeometry x="52.5" y="264" width="178" height="10" as="geometry" />
        </mxCell>
        <mxCell id="8_OqGGnUDp98BqQ4bWpR-106" value="" style="line;strokeWidth=2;html=1;perimeter=backbonePerimeter;points=[];outlineConnect=0;hachureGap=4;fontFamily=Architects Daughter;fontSource=https://fonts.googleapis.com/css?family=Architects+Daughter;strokeColor=#000000;container=0;aspect=fixed;" vertex="1" parent="8_OqGGnUDp98BqQ4bWpR-152">
          <mxGeometry x="199" y="628" width="43.5" height="10" as="geometry" />
        </mxCell>
        <mxCell id="8_OqGGnUDp98BqQ4bWpR-108" value="" style="line;strokeWidth=2;html=1;perimeter=backbonePerimeter;points=[];outlineConnect=0;hachureGap=4;fontFamily=Architects Daughter;fontSource=https://fonts.googleapis.com/css?family=Architects+Daughter;strokeColor=#000000;container=0;aspect=fixed;" vertex="1" parent="8_OqGGnUDp98BqQ4bWpR-152">
          <mxGeometry x="200.5" y="169" width="36" height="10" as="geometry" />
        </mxCell>
        <mxCell id="8_OqGGnUDp98BqQ4bWpR-110" value="" style="line;strokeWidth=2;html=1;perimeter=backbonePerimeter;points=[];outlineConnect=0;hachureGap=4;fontFamily=Architects Daughter;fontSource=https://fonts.googleapis.com/css?family=Architects+Daughter;strokeColor=#000000;container=0;aspect=fixed;" vertex="1" parent="8_OqGGnUDp98BqQ4bWpR-152">
          <mxGeometry x="46.5" y="864" width="200" height="10" as="geometry" />
        </mxCell>
        <mxCell id="8_OqGGnUDp98BqQ4bWpR-112" value="" style="line;strokeWidth=2;html=1;perimeter=backbonePerimeter;points=[];outlineConnect=0;hachureGap=4;fontFamily=Architects Daughter;fontSource=https://fonts.googleapis.com/css?family=Architects+Daughter;strokeColor=#000000;container=0;aspect=fixed;" vertex="1" parent="8_OqGGnUDp98BqQ4bWpR-152">
          <mxGeometry x="45.25" y="629" width="50" height="10" as="geometry" />
        </mxCell>
        <mxCell id="8_OqGGnUDp98BqQ4bWpR-119" value="" style="line;strokeWidth=2;html=1;perimeter=backbonePerimeter;points=[];outlineConnect=0;hachureGap=4;fontFamily=Architects Daughter;fontSource=https://fonts.googleapis.com/css?family=Architects+Daughter;strokeColor=#000000;container=0;aspect=fixed;" vertex="1" parent="8_OqGGnUDp98BqQ4bWpR-152">
          <mxGeometry x="47.5" y="1214" width="199" height="10" as="geometry" />
        </mxCell>
        <mxCell id="8_OqGGnUDp98BqQ4bWpR-120" value="" style="line;strokeWidth=2;html=1;perimeter=backbonePerimeter;points=[];outlineConnect=0;hachureGap=4;fontFamily=Architects Daughter;fontSource=https://fonts.googleapis.com/css?family=Architects+Daughter;strokeColor=#000000;container=0;aspect=fixed;" vertex="1" parent="8_OqGGnUDp98BqQ4bWpR-152">
          <mxGeometry x="52.5" y="555" width="189" height="10" as="geometry" />
        </mxCell>
        <mxCell id="8_OqGGnUDp98BqQ4bWpR-121" value="" style="line;strokeWidth=2;html=1;perimeter=backbonePerimeter;points=[];outlineConnect=0;hachureGap=4;fontFamily=Architects Daughter;fontSource=https://fonts.googleapis.com/css?family=Architects+Daughter;strokeColor=#000000;container=0;aspect=fixed;" vertex="1" parent="8_OqGGnUDp98BqQ4bWpR-152">
          <mxGeometry x="47" y="404" width="189.5" height="10" as="geometry" />
        </mxCell>
        <mxCell id="8_OqGGnUDp98BqQ4bWpR-122" value="" style="line;strokeWidth=2;html=1;perimeter=backbonePerimeter;points=[];outlineConnect=0;hachureGap=4;fontFamily=Architects Daughter;fontSource=https://fonts.googleapis.com/css?family=Architects+Daughter;strokeColor=#000000;container=0;aspect=fixed;" vertex="1" parent="8_OqGGnUDp98BqQ4bWpR-152">
          <mxGeometry x="47.25" y="1014" width="199.25" height="10" as="geometry" />
        </mxCell>
        <mxCell id="8_OqGGnUDp98BqQ4bWpR-125" value="" style="line;strokeWidth=2;html=1;perimeter=backbonePerimeter;points=[];outlineConnect=0;hachureGap=4;fontFamily=Architects Daughter;fontSource=https://fonts.googleapis.com/css?family=Architects+Daughter;strokeColor=#000000;container=0;aspect=fixed;" vertex="1" parent="8_OqGGnUDp98BqQ4bWpR-152">
          <mxGeometry x="47.25" y="1087" width="50" height="10" as="geometry" />
        </mxCell>
        <mxCell id="8_OqGGnUDp98BqQ4bWpR-126" value="" style="line;strokeWidth=2;html=1;perimeter=backbonePerimeter;points=[];outlineConnect=0;hachureGap=4;fontFamily=Architects Daughter;fontSource=https://fonts.googleapis.com/css?family=Architects+Daughter;strokeColor=#000000;container=0;aspect=fixed;" vertex="1" parent="8_OqGGnUDp98BqQ4bWpR-152">
          <mxGeometry x="48.5" y="778" width="50" height="10" as="geometry" />
        </mxCell>
        <mxCell id="8_OqGGnUDp98BqQ4bWpR-131" value="" style="line;strokeWidth=2;direction=south;html=1;hachureGap=4;fontFamily=Architects Daughter;fontSource=https://fonts.googleapis.com/css?family=Architects+Daughter;strokeColor=#000000;container=0;aspect=fixed;" vertex="1" parent="8_OqGGnUDp98BqQ4bWpR-152">
          <mxGeometry x="41.5" y="332" width="10" height="36" as="geometry" />
        </mxCell>
        <mxCell id="8_OqGGnUDp98BqQ4bWpR-140" value="" style="line;strokeWidth=2;direction=south;html=1;hachureGap=4;fontFamily=Architects Daughter;fontSource=https://fonts.googleapis.com/css?family=Architects+Daughter;strokeColor=#000000;container=0;aspect=fixed;" vertex="1" parent="8_OqGGnUDp98BqQ4bWpR-152">
          <mxGeometry x="42.75" y="1091" width="10" height="67" as="geometry" />
        </mxCell>
        <mxCell id="8_OqGGnUDp98BqQ4bWpR-141" value="" style="line;strokeWidth=2;direction=south;html=1;hachureGap=4;fontFamily=Architects Daughter;fontSource=https://fonts.googleapis.com/css?family=Architects+Daughter;strokeColor=#000000;container=0;aspect=fixed;" vertex="1" parent="8_OqGGnUDp98BqQ4bWpR-152">
          <mxGeometry x="237.25" y="782" width="10" height="46" as="geometry" />
        </mxCell>
        <mxCell id="8_OqGGnUDp98BqQ4bWpR-142" value="" style="line;strokeWidth=2;direction=south;html=1;hachureGap=4;fontFamily=Architects Daughter;fontSource=https://fonts.googleapis.com/css?family=Architects+Daughter;strokeColor=#000000;container=0;aspect=fixed;" vertex="1" parent="8_OqGGnUDp98BqQ4bWpR-152">
          <mxGeometry x="44.5" y="782" width="10" height="46" as="geometry" />
        </mxCell>
        <mxCell id="8_OqGGnUDp98BqQ4bWpR-143" value="" style="line;strokeWidth=2;direction=south;html=1;hachureGap=4;fontFamily=Architects Daughter;fontSource=https://fonts.googleapis.com/css?family=Architects+Daughter;strokeColor=#000000;container=0;aspect=fixed;" vertex="1" parent="8_OqGGnUDp98BqQ4bWpR-152">
          <mxGeometry x="237.5" y="1091" width="10" height="127" as="geometry" />
        </mxCell>
        <mxCell id="8_OqGGnUDp98BqQ4bWpR-144" value="" style="line;strokeWidth=2;direction=south;html=1;hachureGap=4;fontFamily=Architects Daughter;fontSource=https://fonts.googleapis.com/css?family=Architects+Daughter;strokeColor=#000000;container=0;aspect=fixed;" vertex="1" parent="8_OqGGnUDp98BqQ4bWpR-152">
          <mxGeometry x="41.5" y="921" width="10" height="37" as="geometry" />
        </mxCell>
        <mxCell id="8_OqGGnUDp98BqQ4bWpR-145" value="" style="line;strokeWidth=2;direction=south;html=1;hachureGap=4;fontFamily=Architects Daughter;fontSource=https://fonts.googleapis.com/css?family=Architects+Daughter;strokeColor=#000000;container=0;aspect=fixed;" vertex="1" parent="8_OqGGnUDp98BqQ4bWpR-152">
          <mxGeometry x="44.25" y="1291" width="10" height="67" as="geometry" />
        </mxCell>
        <mxCell id="8_OqGGnUDp98BqQ4bWpR-147" value="" style="line;strokeWidth=2;direction=south;html=1;hachureGap=4;fontFamily=Architects Daughter;fontSource=https://fonts.googleapis.com/css?family=Architects+Daughter;strokeColor=#000000;container=0;aspect=fixed;" vertex="1" parent="8_OqGGnUDp98BqQ4bWpR-152">
          <mxGeometry x="234.5" y="1295" width="10" height="147" as="geometry" />
        </mxCell>
        <mxCell id="8_OqGGnUDp98BqQ4bWpR-148" value="" style="line;strokeWidth=2;direction=south;html=1;hachureGap=4;fontFamily=Architects Daughter;fontSource=https://fonts.googleapis.com/css?family=Architects+Daughter;strokeColor=#000000;container=0;aspect=fixed;" vertex="1" parent="8_OqGGnUDp98BqQ4bWpR-152">
          <mxGeometry x="141.25" y="1528" width="10" height="50" as="geometry" />
        </mxCell>
        <mxCell id="8_OqGGnUDp98BqQ4bWpR-2" value="" style="strokeWidth=2;html=1;shape=mxgraph.flowchart.start_2;whiteSpace=wrap;rounded=0;labelBackgroundColor=none;strokeColor=#000000;align=center;verticalAlign=middle;fontFamily=Helvetica;fontSize=12;fontColor=default;fillColor=#d5e8d4;aspect=fixed;container=0;" vertex="1" parent="8_OqGGnUDp98BqQ4bWpR-152">
          <mxGeometry x="125" width="40" height="40" as="geometry" />
        </mxCell>
        <mxCell id="8_OqGGnUDp98BqQ4bWpR-5" value="" style="shape=trapezoid;perimeter=trapezoidPerimeter;whiteSpace=wrap;html=1;fixedSize=1;rounded=0;labelBackgroundColor=none;strokeColor=#0F140C;strokeWidth=2;align=center;verticalAlign=middle;fontFamily=Helvetica;fontSize=12;fontColor=default;fillColor=#d5e8d4;aspect=fixed;container=0;" vertex="1" parent="8_OqGGnUDp98BqQ4bWpR-152">
          <mxGeometry x="72.5" y="1490" width="150" height="40" as="geometry" />
        </mxCell>
        <mxCell id="8_OqGGnUDp98BqQ4bWpR-6" value="&lt;font color=&quot;#000000&quot; size=&quot;1&quot; face=&quot;Comic Sans MS&quot;&gt;&lt;b style=&quot;font-size: 17px;&quot;&gt;I&lt;/b&gt;&lt;/font&gt;" style="text;strokeColor=none;align=center;fillColor=none;html=1;verticalAlign=middle;whiteSpace=wrap;rounded=0;fontFamily=Architects Daughter;fontSource=https%3A%2F%2Ffonts.googleapis.com%2Fcss%3Ffamily%3DArchitects%2BDaughter;aspect=fixed;container=0;" vertex="1" parent="8_OqGGnUDp98BqQ4bWpR-152">
          <mxGeometry x="120" width="50" height="40" as="geometry" />
        </mxCell>
        <mxCell id="8_OqGGnUDp98BqQ4bWpR-14" value="" style="rhombus;whiteSpace=wrap;html=1;rounded=0;labelBackgroundColor=none;strokeColor=#0F140C;strokeWidth=2;align=center;verticalAlign=middle;fontFamily=Helvetica;fontSize=12;fontColor=default;fillColor=#d5e8d4;aspect=fixed;container=0;" vertex="1" parent="8_OqGGnUDp98BqQ4bWpR-152">
          <mxGeometry x="92.5" y="130" width="105" height="90" as="geometry" />
        </mxCell>
        <mxCell id="8_OqGGnUDp98BqQ4bWpR-16" value="&lt;font color=&quot;#000000&quot; size=&quot;1&quot; face=&quot;Comic Sans MS&quot;&gt;&lt;b style=&quot;font-size: 17px;&quot;&gt;n1 &amp;gt; n2&lt;/b&gt;&lt;/font&gt;" style="text;strokeColor=none;align=center;fillColor=none;html=1;verticalAlign=middle;whiteSpace=wrap;rounded=0;fontFamily=Architects Daughter;fontSource=https://fonts.googleapis.com/css?family=Architects+Daughter;aspect=fixed;container=0;" vertex="1" parent="8_OqGGnUDp98BqQ4bWpR-152">
          <mxGeometry x="110" y="160" width="70" height="30" as="geometry" />
        </mxCell>
        <mxCell id="8_OqGGnUDp98BqQ4bWpR-21" value="" style="rhombus;whiteSpace=wrap;html=1;rounded=0;labelBackgroundColor=none;strokeColor=#0F140C;strokeWidth=2;align=center;verticalAlign=middle;fontFamily=Helvetica;fontSize=12;fontColor=default;fillColor=#d5e8d4;aspect=fixed;container=0;" vertex="1" parent="8_OqGGnUDp98BqQ4bWpR-152">
          <mxGeometry x="95" y="290" width="100" height="90" as="geometry" />
        </mxCell>
        <mxCell id="8_OqGGnUDp98BqQ4bWpR-32" value="&lt;font color=&quot;#000000&quot; size=&quot;1&quot; face=&quot;Comic Sans MS&quot;&gt;&lt;b style=&quot;font-size: 14px;&quot;&gt;n3 &amp;gt; max&lt;/b&gt;&lt;/font&gt;" style="text;strokeColor=none;align=center;fillColor=none;html=1;verticalAlign=middle;whiteSpace=wrap;rounded=0;fontFamily=Architects Daughter;fontSource=https://fonts.googleapis.com/css?family=Architects+Daughter;aspect=fixed;container=0;" vertex="1" parent="8_OqGGnUDp98BqQ4bWpR-152">
          <mxGeometry x="100" y="320" width="90" height="30" as="geometry" />
        </mxCell>
        <mxCell id="8_OqGGnUDp98BqQ4bWpR-46" value="" style="rhombus;whiteSpace=wrap;html=1;rounded=0;labelBackgroundColor=none;strokeColor=#0F140C;strokeWidth=2;align=center;verticalAlign=middle;fontFamily=Helvetica;fontSize=12;fontColor=default;fillColor=#d5e8d4;aspect=fixed;container=0;" vertex="1" parent="8_OqGGnUDp98BqQ4bWpR-152">
          <mxGeometry x="95" y="880" width="100" height="90" as="geometry" />
        </mxCell>
        <mxCell id="8_OqGGnUDp98BqQ4bWpR-47" value="" style="rhombus;whiteSpace=wrap;html=1;rounded=0;labelBackgroundColor=none;strokeColor=#0F140C;strokeWidth=2;align=center;verticalAlign=middle;fontFamily=Helvetica;fontSize=12;fontColor=default;fillColor=#d5e8d4;aspect=fixed;container=0;" vertex="1" parent="8_OqGGnUDp98BqQ4bWpR-152">
          <mxGeometry x="95" y="1049" width="100" height="90" as="geometry" />
        </mxCell>
        <mxCell id="8_OqGGnUDp98BqQ4bWpR-48" value="" style="rhombus;whiteSpace=wrap;html=1;rounded=0;labelBackgroundColor=none;strokeColor=#0F140C;strokeWidth=2;align=center;verticalAlign=middle;fontFamily=Helvetica;fontSize=12;fontColor=default;fillColor=#d5e8d4;aspect=fixed;container=0;" vertex="1" parent="8_OqGGnUDp98BqQ4bWpR-152">
          <mxGeometry x="95" y="1250" width="100" height="90" as="geometry" />
        </mxCell>
        <mxCell id="8_OqGGnUDp98BqQ4bWpR-56" value="&lt;font color=&quot;#000000&quot; size=&quot;1&quot; face=&quot;Comic Sans MS&quot;&gt;&lt;b style=&quot;font-size: 14px;&quot;&gt;n3 &amp;lt; mini&lt;/b&gt;&lt;/font&gt;" style="text;strokeColor=none;align=center;fillColor=none;html=1;verticalAlign=middle;whiteSpace=wrap;rounded=0;fontFamily=Architects Daughter;fontSource=https://fonts.googleapis.com/css?family=Architects+Daughter;aspect=fixed;container=0;" vertex="1" parent="8_OqGGnUDp98BqQ4bWpR-152">
          <mxGeometry x="100" y="910" width="90" height="30" as="geometry" />
        </mxCell>
        <mxCell id="8_OqGGnUDp98BqQ4bWpR-75" value="&lt;font color=&quot;#000000&quot; size=&quot;1&quot; face=&quot;Comic Sans MS&quot;&gt;&lt;b style=&quot;font-size: 14px;&quot;&gt;n4 &amp;lt; mini&lt;/b&gt;&lt;/font&gt;" style="text;strokeColor=none;align=center;fillColor=none;html=1;verticalAlign=middle;whiteSpace=wrap;rounded=0;fontFamily=Architects Daughter;fontSource=https://fonts.googleapis.com/css?family=Architects+Daughter;aspect=fixed;container=0;" vertex="1" parent="8_OqGGnUDp98BqQ4bWpR-152">
          <mxGeometry x="100" y="1079" width="90" height="30" as="geometry" />
        </mxCell>
        <mxCell id="8_OqGGnUDp98BqQ4bWpR-76" value="&lt;font color=&quot;#000000&quot; size=&quot;1&quot; face=&quot;Comic Sans MS&quot;&gt;&lt;b style=&quot;font-size: 14px;&quot;&gt;n5 &amp;lt; mini&lt;/b&gt;&lt;/font&gt;" style="text;strokeColor=none;align=center;fillColor=none;html=1;verticalAlign=middle;whiteSpace=wrap;rounded=0;fontFamily=Architects Daughter;fontSource=https://fonts.googleapis.com/css?family=Architects+Daughter;aspect=fixed;container=0;" vertex="1" parent="8_OqGGnUDp98BqQ4bWpR-152">
          <mxGeometry x="100" y="1280" width="90" height="30" as="geometry" />
        </mxCell>
        <mxCell id="8_OqGGnUDp98BqQ4bWpR-80" value="&lt;b&gt;&lt;font color=&quot;#000000&quot; face=&quot;Comic Sans MS&quot; style=&quot;font-size: 15px;&quot;&gt;max, mini&lt;/font&gt;&lt;/b&gt;" style="text;strokeColor=none;align=center;fillColor=none;html=1;verticalAlign=middle;whiteSpace=wrap;rounded=0;fontFamily=Architects Daughter;fontSource=https%3A%2F%2Ffonts.googleapis.com%2Fcss%3Ffamily%3DArchitects%2BDaughter;aspect=fixed;container=0;" vertex="1" parent="8_OqGGnUDp98BqQ4bWpR-152">
          <mxGeometry x="90" y="1495" width="110" height="30" as="geometry" />
        </mxCell>
        <mxCell id="8_OqGGnUDp98BqQ4bWpR-101" value="" style="line;strokeWidth=2;direction=south;html=1;hachureGap=4;fontFamily=Architects Daughter;fontSource=https://fonts.googleapis.com/css?family=Architects+Daughter;strokeColor=#000000;container=0;aspect=fixed;" vertex="1" parent="8_OqGGnUDp98BqQ4bWpR-152">
          <mxGeometry x="140" y="40" width="10" height="30" as="geometry" />
        </mxCell>
        <mxCell id="8_OqGGnUDp98BqQ4bWpR-100" value="" style="line;strokeWidth=2;direction=south;html=1;hachureGap=4;fontFamily=Architects Daughter;fontSource=https://fonts.googleapis.com/css?family=Architects+Daughter;strokeColor=#000000;container=0;aspect=fixed;" vertex="1" parent="8_OqGGnUDp98BqQ4bWpR-152">
          <mxGeometry x="140" y="110" width="10" height="20" as="geometry" />
        </mxCell>
        <mxCell id="8_OqGGnUDp98BqQ4bWpR-109" value="" style="line;strokeWidth=2;html=1;perimeter=backbonePerimeter;points=[];outlineConnect=0;hachureGap=4;fontFamily=Architects Daughter;fontSource=https://fonts.googleapis.com/css?family=Architects+Daughter;strokeColor=#000000;container=0;aspect=fixed;" vertex="1" parent="8_OqGGnUDp98BqQ4bWpR-152">
          <mxGeometry x="49" y="170" width="42" height="10" as="geometry" />
        </mxCell>
        <mxCell id="8_OqGGnUDp98BqQ4bWpR-133" value="" style="line;strokeWidth=2;direction=south;html=1;hachureGap=4;fontFamily=Architects Daughter;fontSource=https://fonts.googleapis.com/css?family=Architects+Daughter;strokeColor=#000000;container=0;aspect=fixed;" vertex="1" parent="8_OqGGnUDp98BqQ4bWpR-152">
          <mxGeometry x="43.75" y="255" width="10" height="15" as="geometry" />
        </mxCell>
        <mxCell id="8_OqGGnUDp98BqQ4bWpR-134" value="" style="line;strokeWidth=2;direction=south;html=1;hachureGap=4;fontFamily=Architects Daughter;fontSource=https://fonts.googleapis.com/css?family=Architects+Daughter;strokeColor=#000000;container=0;aspect=fixed;" vertex="1" parent="8_OqGGnUDp98BqQ4bWpR-152">
          <mxGeometry x="227" y="255" width="10" height="15" as="geometry" />
        </mxCell>
        <mxCell id="8_OqGGnUDp98BqQ4bWpR-132" value="" style="line;strokeWidth=2;direction=south;html=1;hachureGap=4;fontFamily=Architects Daughter;fontSource=https://fonts.googleapis.com/css?family=Architects+Daughter;strokeColor=#000000;container=0;aspect=fixed;" vertex="1" parent="8_OqGGnUDp98BqQ4bWpR-152">
          <mxGeometry x="140" y="270" width="10" height="20" as="geometry" />
        </mxCell>
        <mxCell id="8_OqGGnUDp98BqQ4bWpR-107" value="" style="line;strokeWidth=2;html=1;perimeter=backbonePerimeter;points=[];outlineConnect=0;hachureGap=4;fontFamily=Architects Daughter;fontSource=https://fonts.googleapis.com/css?family=Architects+Daughter;strokeColor=#000000;container=0;aspect=fixed;" vertex="1" parent="8_OqGGnUDp98BqQ4bWpR-152">
          <mxGeometry x="45" y="330" width="50" height="10" as="geometry" />
        </mxCell>
        <mxCell id="8_OqGGnUDp98BqQ4bWpR-103" value="" style="line;strokeWidth=2;html=1;perimeter=backbonePerimeter;points=[];outlineConnect=0;hachureGap=4;fontFamily=Architects Daughter;fontSource=https://fonts.googleapis.com/css?family=Architects+Daughter;strokeColor=#000000;container=0;aspect=fixed;" vertex="1" parent="8_OqGGnUDp98BqQ4bWpR-152">
          <mxGeometry x="195" y="330" width="45" height="10" as="geometry" />
        </mxCell>
        <mxCell id="8_OqGGnUDp98BqQ4bWpR-129" value="" style="line;strokeWidth=2;direction=south;html=1;hachureGap=4;fontFamily=Architects Daughter;fontSource=https://fonts.googleapis.com/css?family=Architects+Daughter;strokeColor=#000000;container=0;aspect=fixed;" vertex="1" parent="8_OqGGnUDp98BqQ4bWpR-152">
          <mxGeometry x="41.25" y="400" width="10" height="10" as="geometry" />
        </mxCell>
        <mxCell id="8_OqGGnUDp98BqQ4bWpR-113" value="" style="line;strokeWidth=2;html=1;perimeter=backbonePerimeter;points=[];outlineConnect=0;hachureGap=4;fontFamily=Architects Daughter;fontSource=https://fonts.googleapis.com/css?family=Architects+Daughter;strokeColor=#000000;container=0;aspect=fixed;" vertex="1" parent="8_OqGGnUDp98BqQ4bWpR-152">
          <mxGeometry x="43.75" y="472.5" width="50" height="10" as="geometry" />
        </mxCell>
        <mxCell id="8_OqGGnUDp98BqQ4bWpR-105" value="" style="line;strokeWidth=2;html=1;perimeter=backbonePerimeter;points=[];outlineConnect=0;hachureGap=4;fontFamily=Architects Daughter;fontSource=https://fonts.googleapis.com/css?family=Architects+Daughter;strokeColor=#000000;container=0;aspect=fixed;" vertex="1" parent="8_OqGGnUDp98BqQ4bWpR-152">
          <mxGeometry x="190" y="472.5" width="48.5" height="10" as="geometry" />
        </mxCell>
        <mxCell id="8_OqGGnUDp98BqQ4bWpR-97" value="" style="line;strokeWidth=2;direction=south;html=1;hachureGap=4;fontFamily=Architects Daughter;fontSource=https://fonts.googleapis.com/css?family=Architects+Daughter;strokeColor=#000000;container=0;aspect=fixed;" vertex="1" parent="8_OqGGnUDp98BqQ4bWpR-152">
          <mxGeometry x="140" y="560" width="10" height="30" as="geometry" />
        </mxCell>
        <mxCell id="8_OqGGnUDp98BqQ4bWpR-87" value="" style="line;strokeWidth=2;direction=south;html=1;hachureGap=4;fontFamily=Architects Daughter;fontSource=https://fonts.googleapis.com/css?family=Architects+Daughter;strokeColor=#000000;container=0;aspect=fixed;" vertex="1" parent="8_OqGGnUDp98BqQ4bWpR-152">
          <mxGeometry x="41.25" y="710" width="10" height="10" as="geometry" />
        </mxCell>
        <mxCell id="8_OqGGnUDp98BqQ4bWpR-124" value="" style="line;strokeWidth=2;html=1;perimeter=backbonePerimeter;points=[];outlineConnect=0;hachureGap=4;fontFamily=Architects Daughter;fontSource=https://fonts.googleapis.com/css?family=Architects+Daughter;strokeColor=#000000;container=0;aspect=fixed;" vertex="1" parent="8_OqGGnUDp98BqQ4bWpR-152">
          <mxGeometry x="197.5" y="780" width="42.5" height="10" as="geometry" />
        </mxCell>
        <mxCell id="8_OqGGnUDp98BqQ4bWpR-82" value="" style="line;strokeWidth=2;direction=south;html=1;hachureGap=4;fontFamily=Architects Daughter;fontSource=https://fonts.googleapis.com/css?family=Architects+Daughter;strokeColor=#000000;container=0;aspect=fixed;" vertex="1" parent="8_OqGGnUDp98BqQ4bWpR-152">
          <mxGeometry x="140" y="870" width="10" height="10" as="geometry" />
        </mxCell>
        <mxCell id="8_OqGGnUDp98BqQ4bWpR-127" value="" style="line;strokeWidth=2;html=1;perimeter=backbonePerimeter;points=[];outlineConnect=0;hachureGap=4;fontFamily=Architects Daughter;fontSource=https://fonts.googleapis.com/css?family=Architects+Daughter;strokeColor=#000000;container=0;aspect=fixed;" vertex="1" parent="8_OqGGnUDp98BqQ4bWpR-152">
          <mxGeometry x="43" y="920" width="53.75" height="10" as="geometry" />
        </mxCell>
        <mxCell id="8_OqGGnUDp98BqQ4bWpR-115" value="" style="line;strokeWidth=2;html=1;perimeter=backbonePerimeter;points=[];outlineConnect=0;hachureGap=4;fontFamily=Architects Daughter;fontSource=https://fonts.googleapis.com/css?family=Architects+Daughter;strokeColor=#000000;container=0;aspect=fixed;" vertex="1" parent="8_OqGGnUDp98BqQ4bWpR-152">
          <mxGeometry x="192.5" y="920" width="47.5" height="10" as="geometry" />
        </mxCell>
        <mxCell id="8_OqGGnUDp98BqQ4bWpR-83" value="" style="line;strokeWidth=2;direction=south;html=1;hachureGap=4;fontFamily=Architects Daughter;fontSource=https://fonts.googleapis.com/css?family=Architects+Daughter;strokeColor=#000000;container=0;aspect=fixed;" vertex="1" parent="8_OqGGnUDp98BqQ4bWpR-152">
          <mxGeometry x="41.25" y="990" width="10" height="30" as="geometry" />
        </mxCell>
        <mxCell id="8_OqGGnUDp98BqQ4bWpR-86" value="" style="line;strokeWidth=2;direction=south;html=1;hachureGap=4;fontFamily=Architects Daughter;fontSource=https://fonts.googleapis.com/css?family=Architects+Daughter;strokeColor=#000000;container=0;aspect=fixed;" vertex="1" parent="8_OqGGnUDp98BqQ4bWpR-152">
          <mxGeometry x="140" y="1020" width="10" height="30" as="geometry" />
        </mxCell>
        <mxCell id="8_OqGGnUDp98BqQ4bWpR-114" value="" style="line;strokeWidth=2;html=1;perimeter=backbonePerimeter;points=[];outlineConnect=0;hachureGap=4;fontFamily=Architects Daughter;fontSource=https://fonts.googleapis.com/css?family=Architects+Daughter;strokeColor=#000000;container=0;aspect=fixed;" vertex="1" parent="8_OqGGnUDp98BqQ4bWpR-152">
          <mxGeometry x="193.75" y="1089" width="46.25" height="10" as="geometry" />
        </mxCell>
        <mxCell id="8_OqGGnUDp98BqQ4bWpR-146" value="" style="line;strokeWidth=2;direction=south;html=1;hachureGap=4;fontFamily=Architects Daughter;fontSource=https://fonts.googleapis.com/css?family=Architects+Daughter;strokeColor=#000000;container=0;aspect=fixed;" vertex="1" parent="8_OqGGnUDp98BqQ4bWpR-152">
          <mxGeometry x="140" y="1220" width="10" height="30" as="geometry" />
        </mxCell>
        <mxCell id="8_OqGGnUDp98BqQ4bWpR-111" value="" style="line;strokeWidth=2;html=1;perimeter=backbonePerimeter;points=[];outlineConnect=0;hachureGap=4;fontFamily=Architects Daughter;fontSource=https://fonts.googleapis.com/css?family=Architects+Daughter;strokeColor=#000000;container=0;aspect=fixed;" vertex="1" parent="8_OqGGnUDp98BqQ4bWpR-152">
          <mxGeometry x="46.75" y="1290" width="50" height="10" as="geometry" />
        </mxCell>
        <mxCell id="8_OqGGnUDp98BqQ4bWpR-117" value="" style="line;strokeWidth=2;html=1;perimeter=backbonePerimeter;points=[];outlineConnect=0;hachureGap=4;fontFamily=Architects Daughter;fontSource=https://fonts.googleapis.com/css?family=Architects+Daughter;strokeColor=#000000;container=0;aspect=fixed;" vertex="1" parent="8_OqGGnUDp98BqQ4bWpR-152">
          <mxGeometry x="193.75" y="1290" width="46.25" height="10" as="geometry" />
        </mxCell>
        <mxCell id="8_OqGGnUDp98BqQ4bWpR-150" value="" style="line;strokeWidth=2;direction=south;html=1;hachureGap=4;fontFamily=Architects Daughter;fontSource=https://fonts.googleapis.com/css?family=Architects+Daughter;strokeColor=#000000;container=0;aspect=fixed;" vertex="1" parent="8_OqGGnUDp98BqQ4bWpR-152">
          <mxGeometry x="43.75" y="1390" width="10" height="60" as="geometry" />
        </mxCell>
        <mxCell id="8_OqGGnUDp98BqQ4bWpR-118" value="" style="line;strokeWidth=2;html=1;perimeter=backbonePerimeter;points=[];outlineConnect=0;hachureGap=4;fontFamily=Architects Daughter;fontSource=https://fonts.googleapis.com/css?family=Architects+Daughter;strokeColor=#000000;container=0;aspect=fixed;" vertex="1" parent="8_OqGGnUDp98BqQ4bWpR-152">
          <mxGeometry x="47.5" y="1440" width="192.5" height="10" as="geometry" />
        </mxCell>
        <mxCell id="8_OqGGnUDp98BqQ4bWpR-149" value="" style="line;strokeWidth=2;direction=south;html=1;hachureGap=4;fontFamily=Architects Daughter;fontSource=https://fonts.googleapis.com/css?family=Architects+Daughter;strokeColor=#000000;container=0;aspect=fixed;" vertex="1" parent="8_OqGGnUDp98BqQ4bWpR-152">
          <mxGeometry x="138.75" y="1445" width="10" height="45" as="geometry" />
        </mxCell>
        <mxCell id="8_OqGGnUDp98BqQ4bWpR-4" value="" style="shape=trapezoid;perimeter=trapezoidPerimeter;whiteSpace=wrap;html=1;fixedSize=1;rounded=0;labelBackgroundColor=none;strokeColor=#121211;strokeWidth=2;align=center;verticalAlign=middle;fontFamily=Helvetica;fontSize=12;fontColor=default;fillColor=#d5e8d4;direction=west;container=0;aspect=fixed;" vertex="1" parent="8_OqGGnUDp98BqQ4bWpR-152">
          <mxGeometry x="40" y="70" width="210" height="40" as="geometry">
            <mxRectangle x="-1020" y="-650" width="50" height="40" as="alternateBounds" />
          </mxGeometry>
        </mxCell>
        <mxCell id="8_OqGGnUDp98BqQ4bWpR-7" value="&lt;font face=&quot;Comic Sans MS&quot; color=&quot;#000000&quot;&gt;&lt;span style=&quot;font-size: 17px;&quot;&gt;&lt;b&gt;n1, n2, n3, n4, n5&lt;/b&gt;&lt;/span&gt;&lt;/font&gt;" style="text;strokeColor=none;align=center;fillColor=none;html=1;verticalAlign=middle;whiteSpace=wrap;rounded=0;fontFamily=Architects Daughter;fontSource=https://fonts.googleapis.com/css?family=Architects+Daughter;aspect=fixed;container=0;" vertex="1" parent="8_OqGGnUDp98BqQ4bWpR-152">
          <mxGeometry x="60" y="75" width="170" height="30" as="geometry" />
        </mxCell>
        <mxCell id="8_OqGGnUDp98BqQ4bWpR-28" value="" style="rounded=0;whiteSpace=wrap;html=1;labelBackgroundColor=none;strokeColor=#0f100e;strokeWidth=2;align=center;verticalAlign=middle;fontFamily=Helvetica;fontSize=12;fontColor=default;fillColor=#d5e8d4;aspect=fixed;container=0;" vertex="1" parent="8_OqGGnUDp98BqQ4bWpR-152">
          <mxGeometry x="180" y="225" width="92.5" height="30" as="geometry" />
        </mxCell>
        <mxCell id="8_OqGGnUDp98BqQ4bWpR-29" value="&lt;font color=&quot;#000000&quot; size=&quot;1&quot; face=&quot;Comic Sans MS&quot;&gt;&lt;b style=&quot;font-size: 14px;&quot;&gt;max = n2&lt;/b&gt;&lt;/font&gt;" style="text;strokeColor=none;align=center;fillColor=none;html=1;verticalAlign=middle;whiteSpace=wrap;rounded=0;fontFamily=Architects Daughter;fontSource=https://fonts.googleapis.com/css?family=Architects+Daughter;aspect=fixed;container=0;" vertex="1" parent="8_OqGGnUDp98BqQ4bWpR-152">
          <mxGeometry x="182.5" y="230" width="90" height="20" as="geometry" />
        </mxCell>
        <mxCell id="8_OqGGnUDp98BqQ4bWpR-25" value="" style="rounded=0;whiteSpace=wrap;html=1;labelBackgroundColor=none;strokeColor=#0f100e;strokeWidth=2;align=center;verticalAlign=middle;fontFamily=Helvetica;fontSize=12;fontColor=default;fillColor=#d5e8d4;aspect=fixed;container=0;" vertex="1" parent="8_OqGGnUDp98BqQ4bWpR-152">
          <mxGeometry y="225" width="92.5" height="30" as="geometry" />
        </mxCell>
        <mxCell id="8_OqGGnUDp98BqQ4bWpR-26" value="&lt;font color=&quot;#000000&quot; size=&quot;1&quot; face=&quot;Comic Sans MS&quot;&gt;&lt;b style=&quot;font-size: 14px;&quot;&gt;max = n1&lt;/b&gt;&lt;/font&gt;" style="text;strokeColor=none;align=center;fillColor=none;html=1;verticalAlign=middle;whiteSpace=wrap;rounded=0;fontFamily=Architects Daughter;fontSource=https://fonts.googleapis.com/css?family=Architects+Daughter;aspect=fixed;container=0;" vertex="1" parent="8_OqGGnUDp98BqQ4bWpR-152">
          <mxGeometry x="2.5" y="230" width="90" height="20" as="geometry" />
        </mxCell>
        <mxCell id="8_OqGGnUDp98BqQ4bWpR-35" value="" style="rounded=0;whiteSpace=wrap;html=1;labelBackgroundColor=none;strokeColor=#0f100e;strokeWidth=2;align=center;verticalAlign=middle;fontFamily=Helvetica;fontSize=12;fontColor=default;fillColor=#d5e8d4;aspect=fixed;container=0;" vertex="1" parent="8_OqGGnUDp98BqQ4bWpR-152">
          <mxGeometry x="2.5" y="370" width="92.5" height="30" as="geometry" />
        </mxCell>
        <mxCell id="8_OqGGnUDp98BqQ4bWpR-36" value="&lt;font color=&quot;#000000&quot; size=&quot;1&quot; face=&quot;Comic Sans MS&quot;&gt;&lt;b style=&quot;font-size: 14px;&quot;&gt;max = n3&lt;/b&gt;&lt;/font&gt;" style="text;strokeColor=none;align=center;fillColor=none;html=1;verticalAlign=middle;whiteSpace=wrap;rounded=0;fontFamily=Architects Daughter;fontSource=https://fonts.googleapis.com/css?family=Architects+Daughter;aspect=fixed;container=0;" vertex="1" parent="8_OqGGnUDp98BqQ4bWpR-152">
          <mxGeometry x="5" y="375" width="90" height="20" as="geometry" />
        </mxCell>
        <mxCell id="8_OqGGnUDp98BqQ4bWpR-38" value="" style="rounded=0;whiteSpace=wrap;html=1;labelBackgroundColor=none;strokeColor=#0f100e;strokeWidth=2;align=center;verticalAlign=middle;fontFamily=Helvetica;fontSize=12;fontColor=default;fillColor=#d5e8d4;aspect=fixed;container=0;" vertex="1" parent="8_OqGGnUDp98BqQ4bWpR-152">
          <mxGeometry y="510" width="92.5" height="30" as="geometry" />
        </mxCell>
        <mxCell id="8_OqGGnUDp98BqQ4bWpR-39" value="&lt;font color=&quot;#000000&quot; size=&quot;1&quot; face=&quot;Comic Sans MS&quot;&gt;&lt;b style=&quot;font-size: 14px;&quot;&gt;max = n4&lt;/b&gt;&lt;/font&gt;" style="text;strokeColor=none;align=center;fillColor=none;html=1;verticalAlign=middle;whiteSpace=wrap;rounded=0;fontFamily=Architects Daughter;fontSource=https://fonts.googleapis.com/css?family=Architects+Daughter;aspect=fixed;container=0;" vertex="1" parent="8_OqGGnUDp98BqQ4bWpR-152">
          <mxGeometry x="2.5" y="515" width="90" height="20" as="geometry" />
        </mxCell>
        <mxCell id="8_OqGGnUDp98BqQ4bWpR-18" value="" style="rhombus;whiteSpace=wrap;html=1;rounded=0;labelBackgroundColor=none;strokeColor=#0F140C;strokeWidth=2;align=center;verticalAlign=middle;fontFamily=Helvetica;fontSize=12;fontColor=default;fillColor=#d5e8d4;aspect=fixed;container=0;" vertex="1" parent="8_OqGGnUDp98BqQ4bWpR-152">
          <mxGeometry x="95" y="430" width="100" height="95" as="geometry" />
        </mxCell>
        <mxCell id="8_OqGGnUDp98BqQ4bWpR-33" value="&lt;font color=&quot;#000000&quot; size=&quot;1&quot; face=&quot;Comic Sans MS&quot;&gt;&lt;b style=&quot;font-size: 14px;&quot;&gt;n4 &amp;gt; max&lt;/b&gt;&lt;/font&gt;" style="text;strokeColor=none;align=center;fillColor=none;html=1;verticalAlign=middle;whiteSpace=wrap;rounded=0;fontFamily=Architects Daughter;fontSource=https://fonts.googleapis.com/css?family=Architects+Daughter;aspect=fixed;container=0;" vertex="1" parent="8_OqGGnUDp98BqQ4bWpR-152">
          <mxGeometry x="100" y="462.5" width="90" height="30" as="geometry" />
        </mxCell>
        <mxCell id="8_OqGGnUDp98BqQ4bWpR-130" value="" style="line;strokeWidth=2;direction=south;html=1;hachureGap=4;fontFamily=Architects Daughter;fontSource=https://fonts.googleapis.com/css?family=Architects+Daughter;strokeColor=#000000;container=0;aspect=fixed;" vertex="1" parent="8_OqGGnUDp98BqQ4bWpR-152">
          <mxGeometry x="140" y="410" width="10" height="20" as="geometry" />
        </mxCell>
        <mxCell id="8_OqGGnUDp98BqQ4bWpR-43" value="" style="rounded=0;whiteSpace=wrap;html=1;labelBackgroundColor=none;strokeColor=#0f100e;strokeWidth=2;align=center;verticalAlign=middle;fontFamily=Helvetica;fontSize=12;fontColor=default;fillColor=#d5e8d4;aspect=fixed;container=0;" vertex="1" parent="8_OqGGnUDp98BqQ4bWpR-152">
          <mxGeometry y="680" width="92.5" height="30" as="geometry" />
        </mxCell>
        <mxCell id="8_OqGGnUDp98BqQ4bWpR-44" value="&lt;font color=&quot;#000000&quot; size=&quot;1&quot; face=&quot;Comic Sans MS&quot;&gt;&lt;b style=&quot;font-size: 14px;&quot;&gt;max = n5&lt;/b&gt;&lt;/font&gt;" style="text;strokeColor=none;align=center;fillColor=none;html=1;verticalAlign=middle;whiteSpace=wrap;rounded=0;fontFamily=Architects Daughter;fontSource=https://fonts.googleapis.com/css?family=Architects+Daughter;aspect=fixed;container=0;" vertex="1" parent="8_OqGGnUDp98BqQ4bWpR-152">
          <mxGeometry x="2.5" y="685" width="90" height="20" as="geometry" />
        </mxCell>
        <mxCell id="8_OqGGnUDp98BqQ4bWpR-19" value="" style="rhombus;whiteSpace=wrap;html=1;rounded=0;labelBackgroundColor=none;strokeColor=#0F140C;strokeWidth=2;align=center;verticalAlign=middle;fontFamily=Helvetica;fontSize=12;fontColor=default;fillColor=#d5e8d4;aspect=fixed;container=0;" vertex="1" parent="8_OqGGnUDp98BqQ4bWpR-152">
          <mxGeometry x="95" y="590" width="100" height="90" as="geometry" />
        </mxCell>
        <mxCell id="8_OqGGnUDp98BqQ4bWpR-40" value="&lt;font color=&quot;#000000&quot; size=&quot;1&quot; face=&quot;Comic Sans MS&quot;&gt;&lt;b style=&quot;font-size: 14px;&quot;&gt;n5 &amp;gt; max&lt;/b&gt;&lt;/font&gt;" style="text;strokeColor=none;align=center;fillColor=none;html=1;verticalAlign=middle;whiteSpace=wrap;rounded=0;fontFamily=Architects Daughter;fontSource=https://fonts.googleapis.com/css?family=Architects+Daughter;aspect=fixed;container=0;" vertex="1" parent="8_OqGGnUDp98BqQ4bWpR-152">
          <mxGeometry x="100" y="620" width="90" height="30" as="geometry" />
        </mxCell>
        <mxCell id="8_OqGGnUDp98BqQ4bWpR-49" value="" style="rhombus;whiteSpace=wrap;html=1;rounded=0;labelBackgroundColor=none;strokeColor=#0F140C;strokeWidth=2;align=center;verticalAlign=middle;fontFamily=Helvetica;fontSize=12;fontColor=default;fillColor=#d5e8d4;aspect=fixed;container=0;" vertex="1" parent="8_OqGGnUDp98BqQ4bWpR-152">
          <mxGeometry x="97.5" y="740" width="100" height="90" as="geometry" />
        </mxCell>
        <mxCell id="8_OqGGnUDp98BqQ4bWpR-54" value="&lt;font color=&quot;#000000&quot; size=&quot;1&quot; face=&quot;Comic Sans MS&quot;&gt;&lt;b style=&quot;font-size: 14px;&quot;&gt;n1 &amp;lt; n2&lt;/b&gt;&lt;/font&gt;" style="text;strokeColor=none;align=center;fillColor=none;html=1;verticalAlign=middle;whiteSpace=wrap;rounded=0;fontFamily=Architects Daughter;fontSource=https://fonts.googleapis.com/css?family=Architects+Daughter;aspect=fixed;container=0;" vertex="1" parent="8_OqGGnUDp98BqQ4bWpR-152">
          <mxGeometry x="100" y="770" width="90" height="30" as="geometry" />
        </mxCell>
        <mxCell id="8_OqGGnUDp98BqQ4bWpR-88" value="" style="line;strokeWidth=2;direction=south;html=1;hachureGap=4;fontFamily=Architects Daughter;fontSource=https://fonts.googleapis.com/css?family=Architects+Daughter;strokeColor=#000000;container=0;aspect=fixed;" vertex="1" parent="8_OqGGnUDp98BqQ4bWpR-152">
          <mxGeometry x="140" y="720" width="10" height="20" as="geometry" />
        </mxCell>
        <mxCell id="8_OqGGnUDp98BqQ4bWpR-52" value="" style="rounded=0;whiteSpace=wrap;html=1;labelBackgroundColor=none;strokeColor=#0f100e;strokeWidth=2;align=center;verticalAlign=middle;fontFamily=Helvetica;fontSize=12;fontColor=default;fillColor=#d5e8d4;aspect=fixed;container=0;" vertex="1" parent="8_OqGGnUDp98BqQ4bWpR-152">
          <mxGeometry x="2.5" y="830" width="92.5" height="30" as="geometry" />
        </mxCell>
        <mxCell id="8_OqGGnUDp98BqQ4bWpR-53" value="&lt;font color=&quot;#000000&quot; size=&quot;1&quot; face=&quot;Comic Sans MS&quot;&gt;&lt;b style=&quot;font-size: 14px;&quot;&gt;mini = n1&lt;/b&gt;&lt;/font&gt;" style="text;strokeColor=none;align=center;fillColor=none;html=1;verticalAlign=middle;whiteSpace=wrap;rounded=0;fontFamily=Architects Daughter;fontSource=https://fonts.googleapis.com/css?family=Architects+Daughter;aspect=fixed;container=0;" vertex="1" parent="8_OqGGnUDp98BqQ4bWpR-152">
          <mxGeometry x="5" y="835" width="90" height="20" as="geometry" />
        </mxCell>
        <mxCell id="8_OqGGnUDp98BqQ4bWpR-66" value="" style="rounded=0;whiteSpace=wrap;html=1;labelBackgroundColor=none;strokeColor=#0f100e;strokeWidth=2;align=center;verticalAlign=middle;fontFamily=Helvetica;fontSize=12;fontColor=default;fillColor=#d5e8d4;aspect=fixed;container=0;" vertex="1" parent="8_OqGGnUDp98BqQ4bWpR-152">
          <mxGeometry x="197.5" y="830" width="92.5" height="30" as="geometry" />
        </mxCell>
        <mxCell id="8_OqGGnUDp98BqQ4bWpR-67" value="&lt;font color=&quot;#000000&quot; size=&quot;1&quot; face=&quot;Comic Sans MS&quot;&gt;&lt;b style=&quot;font-size: 14px;&quot;&gt;mini = n2&lt;/b&gt;&lt;/font&gt;" style="text;strokeColor=none;align=center;fillColor=none;html=1;verticalAlign=middle;whiteSpace=wrap;rounded=0;fontFamily=Architects Daughter;fontSource=https://fonts.googleapis.com/css?family=Architects+Daughter;aspect=fixed;container=0;" vertex="1" parent="8_OqGGnUDp98BqQ4bWpR-152">
          <mxGeometry x="200" y="835" width="90" height="20" as="geometry" />
        </mxCell>
        <mxCell id="8_OqGGnUDp98BqQ4bWpR-69" value="" style="rounded=0;whiteSpace=wrap;html=1;labelBackgroundColor=none;strokeColor=#0f100e;strokeWidth=2;align=center;verticalAlign=middle;fontFamily=Helvetica;fontSize=12;fontColor=default;fillColor=#d5e8d4;aspect=fixed;container=0;" vertex="1" parent="8_OqGGnUDp98BqQ4bWpR-152">
          <mxGeometry x="2.5" y="1160" width="92.5" height="30" as="geometry" />
        </mxCell>
        <mxCell id="8_OqGGnUDp98BqQ4bWpR-70" value="&lt;font color=&quot;#000000&quot; size=&quot;1&quot; face=&quot;Comic Sans MS&quot;&gt;&lt;b style=&quot;font-size: 14px;&quot;&gt;mini = n4&lt;/b&gt;&lt;/font&gt;" style="text;strokeColor=none;align=center;fillColor=none;html=1;verticalAlign=middle;whiteSpace=wrap;rounded=0;fontFamily=Architects Daughter;fontSource=https://fonts.googleapis.com/css?family=Architects+Daughter;aspect=fixed;container=0;" vertex="1" parent="8_OqGGnUDp98BqQ4bWpR-152">
          <mxGeometry x="5" y="1165" width="90" height="20" as="geometry" />
        </mxCell>
        <mxCell id="8_OqGGnUDp98BqQ4bWpR-72" value="" style="rounded=0;whiteSpace=wrap;html=1;labelBackgroundColor=none;strokeColor=#0f100e;strokeWidth=2;align=center;verticalAlign=middle;fontFamily=Helvetica;fontSize=12;fontColor=default;fillColor=#d5e8d4;aspect=fixed;container=0;" vertex="1" parent="8_OqGGnUDp98BqQ4bWpR-152">
          <mxGeometry x="2.5" y="960" width="92.5" height="30" as="geometry" />
        </mxCell>
        <mxCell id="8_OqGGnUDp98BqQ4bWpR-73" value="&lt;font color=&quot;#000000&quot; size=&quot;1&quot; face=&quot;Comic Sans MS&quot;&gt;&lt;b style=&quot;font-size: 14px;&quot;&gt;mini = n3&lt;/b&gt;&lt;/font&gt;" style="text;strokeColor=none;align=center;fillColor=none;html=1;verticalAlign=middle;whiteSpace=wrap;rounded=0;fontFamily=Architects Daughter;fontSource=https://fonts.googleapis.com/css?family=Architects+Daughter;aspect=fixed;container=0;" vertex="1" parent="8_OqGGnUDp98BqQ4bWpR-152">
          <mxGeometry x="5" y="965" width="90" height="20" as="geometry" />
        </mxCell>
        <mxCell id="8_OqGGnUDp98BqQ4bWpR-78" value="" style="rounded=0;whiteSpace=wrap;html=1;labelBackgroundColor=none;strokeColor=#0f100e;strokeWidth=2;align=center;verticalAlign=middle;fontFamily=Helvetica;fontSize=12;fontColor=default;fillColor=#d5e8d4;aspect=fixed;container=0;" vertex="1" parent="8_OqGGnUDp98BqQ4bWpR-152">
          <mxGeometry x="2.5" y="1360" width="92.5" height="30" as="geometry" />
        </mxCell>
        <mxCell id="8_OqGGnUDp98BqQ4bWpR-79" value="&lt;font color=&quot;#000000&quot; size=&quot;1&quot; face=&quot;Comic Sans MS&quot;&gt;&lt;b style=&quot;font-size: 14px;&quot;&gt;mini = n5&lt;/b&gt;&lt;/font&gt;" style="text;strokeColor=none;align=center;fillColor=none;html=1;verticalAlign=middle;whiteSpace=wrap;rounded=0;fontFamily=Architects Daughter;fontSource=https://fonts.googleapis.com/css?family=Architects+Daughter;aspect=fixed;container=0;" vertex="1" parent="8_OqGGnUDp98BqQ4bWpR-152">
          <mxGeometry x="5" y="1365" width="90" height="20" as="geometry" />
        </mxCell>
        <mxCell id="8_OqGGnUDp98BqQ4bWpR-151" value="" style="group;aspect=fixed;" vertex="1" connectable="0" parent="8_OqGGnUDp98BqQ4bWpR-152">
          <mxGeometry x="121.25" y="1578" width="50" height="40" as="geometry" />
        </mxCell>
        <mxCell id="8_OqGGnUDp98BqQ4bWpR-3" value="" style="strokeWidth=2;html=1;shape=mxgraph.flowchart.start_2;whiteSpace=wrap;rounded=0;labelBackgroundColor=none;strokeColor=#000000;align=center;verticalAlign=middle;fontFamily=Helvetica;fontSize=12;fontColor=default;fillColor=#d5e8d4;container=0;aspect=fixed;" vertex="1" parent="8_OqGGnUDp98BqQ4bWpR-151">
          <mxGeometry x="5" width="40" height="40" as="geometry" />
        </mxCell>
        <mxCell id="8_OqGGnUDp98BqQ4bWpR-8" value="&lt;font color=&quot;#000000&quot; size=&quot;1&quot; face=&quot;Comic Sans MS&quot;&gt;&lt;b style=&quot;font-size: 17px;&quot;&gt;F&lt;/b&gt;&lt;/font&gt;" style="text;strokeColor=none;align=center;fillColor=none;html=1;verticalAlign=middle;whiteSpace=wrap;rounded=0;fontFamily=Architects Daughter;fontSource=https://fonts.googleapis.com/css?family=Architects+Daughter;container=0;aspect=fixed;" vertex="1" parent="8_OqGGnUDp98BqQ4bWpR-151">
          <mxGeometry width="50" height="40" as="geometry" />
        </mxCell>
      </root>
    </mxGraphModel>
  </diagram>
</mxfile>
